<?xml version="1.0" encoding="us-ascii" standalone="no"?><svg xmlns="http://www.w3.org/2000/svg" xmlns:xlink="http://www.w3.org/1999/xlink" contentStyleType="text/css" height="482px" preserveAspectRatio="none" style="width:727px;height:482px;background:#FFFFFF;" version="1.1" viewBox="0 0 727 482" width="727px" zoomAndPan="magnify"><defs/><g><!--entity data--><g id="elem_data"><rect fill="#F1F1F1" height="47.6094" rx="2.5" ry="2.5" style="stroke:#181818;stroke-width:0.5;" width="130" x="312.5" y="418"/><rect fill="#F1F1F1" height="10" style="stroke:#181818;stroke-width:0.5;" width="15" x="422.5" y="423"/><rect fill="#F1F1F1" height="2" style="stroke:#181818;stroke-width:0.5;" width="4" x="420.5" y="425"/><rect fill="#F1F1F1" height="2" style="stroke:#181818;stroke-width:0.5;" width="4" x="420.5" y="429"/><text fill="#000000" font-family="sans-serif" font-size="14" lengthAdjust="spacing" textLength="90" x="327.5" y="452.5332">Common.Data</text></g><!--entity s_api--><g id="elem_s_api"><ellipse cx="182.5" cy="442" fill="#F1F1F1" rx="8" ry="8" style="stroke:#181818;stroke-width:0.5;"/><text fill="#000000" font-family="sans-serif" font-size="14" lengthAdjust="spacing" textLength="74" x="145.5" y="473.5332">Storage.Api</text></g><!--entity storage--><g id="elem_storage"><rect fill="#F1F1F1" height="47.6094" rx="2.5" ry="2.5" style="stroke:#181818;stroke-width:0.5;" width="178" x="359.5" y="310"/><rect fill="#F1F1F1" height="10" style="stroke:#181818;stroke-width:0.5;" width="15" x="517.5" y="315"/><rect fill="#F1F1F1" height="2" style="stroke:#181818;stroke-width:0.5;" width="4" x="515.5" y="317"/><rect fill="#F1F1F1" height="2" style="stroke:#181818;stroke-width:0.5;" width="4" x="515.5" y="321"/><text fill="#000000" font-family="sans-serif" font-size="14" lengthAdjust="spacing" textLength="138" x="374.5" y="344.5332">Infrastructure.Storage</text></g><!--entity ui_api--><g id="elem_ui_api"><ellipse cx="244.5" cy="334" fill="#F1F1F1" rx="8" ry="8" style="stroke:#181818;stroke-width:0.5;"/><text fill="#000000" font-family="sans-serif" font-size="14" lengthAdjust="spacing" textLength="36" x="226.5" y="365.5332">Ui.Api</text></g><!--entity ui--><g id="elem_ui"><rect fill="#F1F1F1" height="47.6094" rx="2.5" ry="2.5" style="stroke:#181818;stroke-width:0.5;" width="52" x="77.5" y="310"/><rect fill="#F1F1F1" height="10" style="stroke:#181818;stroke-width:0.5;" width="15" x="109.5" y="315"/><rect fill="#F1F1F1" height="2" style="stroke:#181818;stroke-width:0.5;" width="4" x="107.5" y="317"/><rect fill="#F1F1F1" height="2" style="stroke:#181818;stroke-width:0.5;" width="4" x="107.5" y="321"/><text fill="#000000" font-family="sans-serif" font-size="14" lengthAdjust="spacing" textLength="12" x="92.5" y="344.5332">Ui</text></g><!--entity desktop--><g id="elem_desktop"><rect fill="#F1F1F1" height="47.6094" rx="2.5" ry="2.5" style="stroke:#181818;stroke-width:0.5;" width="108" x="190.5" y="180"/><rect fill="#F1F1F1" height="10" style="stroke:#181818;stroke-width:0.5;" width="15" x="278.5" y="185"/><rect fill="#F1F1F1" height="2" style="stroke:#181818;stroke-width:0.5;" width="4" x="276.5" y="187"/><rect fill="#F1F1F1" height="2" style="stroke:#181818;stroke-width:0.5;" width="4" x="276.5" y="191"/><text fill="#000000" font-family="sans-serif" font-size="14" lengthAdjust="spacing" textLength="68" x="205.5" y="214.5332">Ui.Desktop</text></g><g id="elem_GMN17"><path d="M149.5,6 L149.5,97.7578 A0,0 0 0 0 149.5,97.7578 L240.5,97.7578 L244.5,179.78 L248.5,97.7578 L339.5,97.7578 A0,0 0 0 0 339.5,97.7578 L339.5,16 L329.5,6 L149.5,6 A0,0 0 0 0 149.5,6 " fill="#FEFFDD" style="stroke:#181818;stroke-width:0.5;"/><path d="M329.5,6 L329.5,16 L339.5,16 L329.5,6 " fill="#FEFFDD" style="stroke:#181818;stroke-width:0.5;"/><text fill="#000000" font-family="sans-serif" font-size="13" lengthAdjust="spacing" textLength="112" x="155.5" y="24.4951">WPF user interface</text><text fill="#000000" font-family="sans-serif" font-size="13" lengthAdjust="spacing" textLength="148" x="155.5" y="40.8467">One view for each window</text><text fill="#000000" font-family="sans-serif" font-size="13" lengthAdjust="spacing" textLength="169" x="155.5" y="57.1982">One view model for each view</text><text fill="#000000" font-family="sans-serif" font-size="13" lengthAdjust="spacing" textLength="4" x="155.5" y="73.5498">&#160;</text><text fill="#000000" font-family="sans-serif" font-size="13" lengthAdjust="spacing" textLength="113" x="155.5" y="89.9014">IoC container wiring</text></g><g id="elem_GMN20"><path d="M6,158 L6,249.7578 A0,0 0 0 0 6,249.7578 L84.61,249.7578 L99.33,309.79 L92.61,249.7578 L155,249.7578 A0,0 0 0 0 155,249.7578 L155,168 L145,158 L6,158 A0,0 0 0 0 6,158 " fill="#FEFFDD" style="stroke:#181818;stroke-width:0.5;"/><path d="M145,158 L145,168 L155,168 L145,158 " fill="#FEFFDD" style="stroke:#181818;stroke-width:0.5;"/><text fill="#000000" font-family="sans-serif" font-size="13" lengthAdjust="spacing" textLength="63" x="12" y="176.4951">UI services</text><text fill="#000000" font-family="sans-serif" font-size="13" lengthAdjust="spacing" textLength="4" x="12" y="192.8467">&#160;</text><text fill="#000000" font-family="sans-serif" font-size="13" lengthAdjust="spacing" textLength="109" x="12" y="209.1982">One view model for</text><text fill="#000000" font-family="sans-serif" font-size="13" lengthAdjust="spacing" textLength="102" x="12" y="225.5498">each model class</text><text fill="#000000" font-family="sans-serif" font-size="13" lengthAdjust="spacing" textLength="128" x="12" y="241.9014">(list item view models)</text></g><g id="elem_GMN23"><path d="M372.5,191 L372.5,217.3516 A0,0 0 0 0 372.5,217.3516 L444.5,217.3516 L448.5,309.8 L452.5,217.3516 L524.5,217.3516 A0,0 0 0 0 524.5,217.3516 L524.5,201 L514.5,191 L372.5,191 A0,0 0 0 0 372.5,191 " fill="#FEFFDD" style="stroke:#181818;stroke-width:0.5;"/><path d="M514.5,191 L514.5,201 L524.5,201 L514.5,191 " fill="#FEFFDD" style="stroke:#181818;stroke-width:0.5;"/><text fill="#000000" font-family="sans-serif" font-size="13" lengthAdjust="spacing" textLength="131" x="378.5" y="209.4951">File based persistence</text></g><g id="elem_GMN26"><path d="M573,312.5 L573,355.2031 A0,0 0 0 0 573,355.2031 L590.32,355.2031 L436.08,417.92 L598.32,355.2031 L720,355.2031 A0,0 0 0 0 720,355.2031 L720,322.5 L710,312.5 L573,312.5 A0,0 0 0 0 573,312.5 " fill="#FEFFDD" style="stroke:#181818;stroke-width:0.5;"/><path d="M710,312.5 L710,322.5 L720,322.5 L710,312.5 " fill="#FEFFDD" style="stroke:#181818;stroke-width:0.5;"/><text fill="#000000" font-family="sans-serif" font-size="13" lengthAdjust="spacing" textLength="84" x="579" y="330.9951">Data model for</text><text fill="#000000" font-family="sans-serif" font-size="13" lengthAdjust="spacing" textLength="126" x="579" y="347.3467">internal data structure</text></g><!--link storage to s_api--><g id="link_storage_s_api"><path d="M390.78,358 C325.08,384.18 222.83,424.93 191.76,437.31 " fill="none" id="storage-s_api" style="stroke:#181818;stroke-width:1.0;"/></g><!--link ui to ui_api--><g id="link_ui_ui_api"><path d="M129.66,334 C164.8,334 199.94,334 235.08,334 " fill="none" id="ui-ui_api" style="stroke:#181818;stroke-width:1.0;"/></g><!--link desktop to ui--><g id="link_desktop_ui"><path d="M218.97,228.18 C193.41,251.38 158.7733,282.828 133.2833,305.958 " fill="none" id="desktop-to-ui" style="stroke:#181818;stroke-width:1.0;stroke-dasharray:7.0,7.0;"/><polygon fill="#181818" points="128.84,309.99,138.193,306.9043,132.5428,306.63,132.817,300.9798,128.84,309.99" style="stroke:#181818;stroke-width:1.0;"/></g><!--link desktop to ui_api--><g id="link_desktop_ui_api"><path d="M244.5,228.18 C244.5,257.29 244.5,299.72 244.5,318.86 " fill="none" id="desktop-to-ui_api" style="stroke:#181818;stroke-width:1.0;stroke-dasharray:7.0,7.0;"/><polygon fill="#181818" points="244.5,324.86,248.5,315.86,244.5,319.86,240.5,315.86,244.5,324.86" style="stroke:#181818;stroke-width:1.0;"/></g><!--link desktop to s_api--><g id="link_desktop_s_api"><path d="M238.44,228.06 C225.04,279.09 194.8852,393.8671 186.2352,426.7771 " fill="none" id="desktop-to-s_api" style="stroke:#181818;stroke-width:1.0;stroke-dasharray:7.0,7.0;"/><polygon fill="#181818" points="184.71,432.58,190.8664,424.8925,185.981,427.7442,183.1292,422.8588,184.71,432.58" style="stroke:#181818;stroke-width:1.0;"/></g><!--link desktop to data--><g id="link_desktop_data"><path d="M257.49,228.06 C282.92,273.18 336.034,367.4331 361.504,412.6231 " fill="none" id="desktop-to-data" style="stroke:#181818;stroke-width:1.0;stroke-dasharray:7.0,7.0;"/><polygon fill="#181818" points="364.45,417.85,363.5156,408.0456,361.995,413.4942,356.5463,411.9736,364.45,417.85" style="stroke:#181818;stroke-width:1.0;"/></g><!--link ui to s_api--><g id="link_ui_s_api"><path d="M120.64,358 C138.25,381.63 161.1037,412.2998 172.8837,428.0998 " fill="none" id="ui-to-s_api" style="stroke:#181818;stroke-width:1.0;stroke-dasharray:7.0,7.0;"/><polygon fill="#181818" points="176.47,432.91,174.2973,423.3038,173.4814,428.9015,167.8837,428.0856,176.47,432.91" style="stroke:#181818;stroke-width:1.0;"/></g><!--link ui to data--><g id="link_ui_data"><path d="M129.77,345.16 C172.84,361.82 253.9042,393.1851 312.4242,415.8251 " fill="none" id="ui-to-data" style="stroke:#181818;stroke-width:1.0;stroke-dasharray:7.0,7.0;"/><polygon fill="#181818" points="318.02,417.99,311.0695,411.0121,313.3568,416.1859,308.183,418.4732,318.02,417.99" style="stroke:#181818;stroke-width:1.0;"/></g><!--link storage to data--><g id="link_storage_data"><path d="M433.09,358 C421.27,375.66 408.3386,394.9546 396.4586,412.6946 " fill="none" id="storage-to-data" style="stroke:#181818;stroke-width:1.0;stroke-dasharray:7.0,7.0;"/><polygon fill="#181818" points="393.12,417.68,401.4514,412.4277,395.9021,413.5255,394.8043,407.9762,393.12,417.68" style="stroke:#181818;stroke-width:1.0;"/></g><!--SRC=[TL9DJyCm3BtdLrWxmO7y12IqQT9E84qLXsb28NM7HPjKSRh-VVArVW3h9VQBt_EpczFMTfqrSgUyEeDYg4CW11cFhb4QONFqrgaBofUUDh60FrHFudGmZLFitQ3zu52MgYJ1EHRbXAV2MQfMD0aEb1KhEkTK31Gu1Owut25_UzjdWpaMeWGWvNCahTF4NKBy1ycJXbxpTKdopSt-Z1Zh4IBTDfCD2D_xsnu6HWVJW0b-DGXNmX4Qwm2L_eAHJ6t7zMLdQspdaeY9L76mMz3MU4KcI8_ao5m4cXgYZRMPC7vaL0S8BgwaaSMT9WbEZJAaMyMSm8UMs0Dvx1OKVhpJyVQF8tDFBSAdOgoXHyT11arOmV_4jCd8YY_kbw-qFgFQL0JJuvgLVW00]--></g></svg>