<?xml version="1.0" encoding="us-ascii" standalone="no"?><svg xmlns="http://www.w3.org/2000/svg" xmlns:xlink="http://www.w3.org/1999/xlink" contentStyleType="text/css" height="542px" preserveAspectRatio="none" style="width:849px;height:542px;background:#FFFFFF;" version="1.1" viewBox="0 0 849 542" width="849px" zoomAndPan="magnify"><defs/><g><!--class Entity--><g id="elem_Entity"><rect codeLine="2" fill="#F1F1F1" height="100.8281" id="Entity" rx="2.5" ry="2.5" style="stroke:#181818;stroke-width:0.5;" width="152" x="368.5" y="7"/><ellipse cx="422.75" cy="23" fill="#A9DCDF" rx="11" ry="11" style="stroke:#181818;stroke-width:1.0;"/><path d="M424.9375,24.7656 L420.7969,24.7656 L420.375,25.7969 L420.7969,25.7969 Q421.4063,25.7969 421.6719,26.0313 Q421.9375,26.2656 421.9375,26.6563 Q421.9375,27.0313 421.6719,27.2656 Q421.4063,27.5 420.7969,27.5 L418.5,27.5 Q417.8906,27.5 417.6406,27.2656 Q417.375,27.0313 417.375,26.6406 Q417.375,26.2656 417.6563,26.0313 Q417.9219,25.7813 418.5469,25.7969 L421.2188,19.1406 L420.1094,19.1406 Q419.5,19.1406 419.2344,18.9063 Q418.9688,18.6719 418.9688,18.2813 Q418.9688,17.9063 419.2344,17.6719 Q419.5,17.4375 420.1094,17.4375 L423.7813,17.4375 L427.1719,25.7969 Q427.7656,25.7969 427.9531,25.9375 Q428.3438,26.2031 428.3438,26.6563 Q428.3438,27.0313 428.0781,27.2656 Q427.8281,27.5 427.2188,27.5 L424.9219,27.5 Q424.3125,27.5 424.0469,27.2656 Q423.7813,27.0313 423.7813,26.6406 Q423.7813,26.2656 424.0469,26.0313 Q424.3125,25.7969 424.9219,25.7969 L425.3438,25.7969 L424.9375,24.7656 Z M424.2188,23.0625 L422.8594,19.6875 L421.4844,23.0625 L424.2188,23.0625 Z " fill="#000000"/><text fill="#000000" font-family="sans-serif" font-size="14" font-style="italic" lengthAdjust="spacing" textLength="35" x="443.25" y="28.7285">Entity</text><line style="stroke:#181818;stroke-width:0.5;" x1="369.5" x2="519.5" y1="39" y2="39"/><ellipse cx="379.5" cy="53.3047" fill="none" rx="3" ry="3" style="stroke:#038048;stroke-width:1.0;"/><text fill="#000000" font-family="sans-serif" font-size="14" lengthAdjust="spacing" textLength="53" x="388.5" y="57.5332">Id : Guid</text><ellipse cx="379.5" cy="70.9141" fill="none" rx="3" ry="3" style="stroke:#038048;stroke-width:1.0;"/><text fill="#000000" font-family="sans-serif" font-size="14" lengthAdjust="spacing" textLength="124" x="388.5" y="75.1426">Created : DateTime</text><ellipse cx="379.5" cy="88.5234" fill="none" rx="3" ry="3" style="stroke:#038048;stroke-width:1.0;"/><text fill="#000000" font-family="sans-serif" font-size="14" lengthAdjust="spacing" textLength="126" x="388.5" y="92.752">Modified : DateTime</text><line style="stroke:#181818;stroke-width:0.5;" x1="369.5" x2="519.5" y1="99.8281" y2="99.8281"/></g><!--class Profile--><g id="elem_Profile"><rect codeLine="8" fill="#F1F1F1" height="153.6563" id="Profile" rx="2.5" ry="2.5" style="stroke:#181818;stroke-width:0.5;" width="257" x="7" y="185.5"/><ellipse cx="111.25" cy="201.5" fill="#ADD1B2" rx="11" ry="11" style="stroke:#181818;stroke-width:1.0;"/><path d="M114.0156,197.375 Q114.1719,197.1563 114.3594,197.0469 Q114.5469,196.9375 114.7656,196.9375 Q115.1406,196.9375 115.375,197.2031 Q115.6094,197.4531 115.6094,198.0625 L115.6094,199.5156 Q115.6094,200.125 115.375,200.3906 Q115.1406,200.6563 114.7656,200.6563 Q114.4219,200.6563 114.2188,200.4531 Q114.0156,200.2656 113.9063,199.75 Q113.8594,199.3906 113.6719,199.2031 Q113.3438,198.8281 112.7344,198.6094 Q112.125,198.3906 111.5,198.3906 Q110.7344,198.3906 110.0938,198.7188 Q109.4688,199.0469 108.9688,199.7969 Q108.4844,200.5469 108.4844,201.5781 L108.4844,202.6719 Q108.4844,203.9063 109.375,204.7344 Q110.2656,205.5469 111.8594,205.5469 Q112.7969,205.5469 113.4531,205.2969 Q113.8438,205.1406 114.2656,204.7031 Q114.5313,204.4375 114.6719,204.3594 Q114.8281,204.2813 115.0313,204.2813 Q115.3594,204.2813 115.6094,204.5469 Q115.875,204.7969 115.875,205.1406 Q115.875,205.4844 115.5313,205.8906 Q115.0313,206.4688 114.2344,206.7969 Q113.1563,207.25 111.8594,207.25 Q110.3438,207.25 109.1406,206.625 Q108.1563,206.125 107.4688,205.0625 Q106.7813,203.9844 106.7813,202.7031 L106.7813,201.5469 Q106.7813,200.2188 107.3906,199.0781 Q108.0156,197.9219 109.1094,197.3125 Q110.2031,196.6875 111.4375,196.6875 Q112.1719,196.6875 112.8125,196.8594 Q113.4688,197.0156 114.0156,197.375 Z " fill="#000000"/><text fill="#000000" font-family="sans-serif" font-size="14" lengthAdjust="spacing" textLength="40" x="131.75" y="207.2285">Profile</text><line style="stroke:#181818;stroke-width:0.5;" x1="8" x2="263" y1="217.5" y2="217.5"/><ellipse cx="18" cy="231.8047" fill="none" rx="3" ry="3" style="stroke:#038048;stroke-width:1.0;"/><text fill="#000000" font-family="sans-serif" font-size="14" lengthAdjust="spacing" textLength="83" x="27" y="236.0332">Name : string</text><ellipse cx="18" cy="249.4141" fill="none" rx="3" ry="3" style="stroke:#038048;stroke-width:1.0;"/><text fill="#000000" font-family="sans-serif" font-size="14" lengthAdjust="spacing" textLength="223" x="27" y="253.6426">Fragments : IDictionary&lt;Guid, uint&gt;</text><line style="stroke:#181818;stroke-width:0.5;" x1="8" x2="263" y1="260.7188" y2="260.7188"/><ellipse cx="18" cy="275.0234" fill="#84BE84" rx="3" ry="3" style="stroke:#038048;stroke-width:1.0;"/><text fill="#000000" font-family="sans-serif" font-size="14" lengthAdjust="spacing" textLength="187" x="27" y="279.252">AddFragment(id : Guid) : void</text><ellipse cx="18" cy="292.6328" fill="#84BE84" rx="3" ry="3" style="stroke:#038048;stroke-width:1.0;"/><text fill="#000000" font-family="sans-serif" font-size="14" lengthAdjust="spacing" textLength="215" x="27" y="296.8613">RemoveFragment(id : Guid) : bool</text><ellipse cx="18" cy="310.2422" fill="#84BE84" rx="3" ry="3" style="stroke:#038048;stroke-width:1.0;"/><text fill="#000000" font-family="sans-serif" font-size="14" lengthAdjust="spacing" textLength="213" x="27" y="314.4707">MoveFragmentUp(id : Guid) : void</text><ellipse cx="18" cy="327.8516" fill="#84BE84" rx="3" ry="3" style="stroke:#038048;stroke-width:1.0;"/><text fill="#000000" font-family="sans-serif" font-size="14" lengthAdjust="spacing" textLength="231" x="27" y="332.0801">MoveFragmentDown(id : Guid) : void</text></g><!--class Fragment--><g id="elem_Fragment"><rect codeLine="17" fill="#F1F1F1" height="100.8281" id="Fragment" rx="2.5" ry="2.5" style="stroke:#181818;stroke-width:0.5;" width="196" x="37.5" y="425.5"/><ellipse cx="100.75" cy="441.5" fill="#ADD1B2" rx="11" ry="11" style="stroke:#181818;stroke-width:1.0;"/><path d="M103.5156,437.375 Q103.6719,437.1563 103.8594,437.0469 Q104.0469,436.9375 104.2656,436.9375 Q104.6406,436.9375 104.875,437.2031 Q105.1094,437.4531 105.1094,438.0625 L105.1094,439.5156 Q105.1094,440.125 104.875,440.3906 Q104.6406,440.6563 104.2656,440.6563 Q103.9219,440.6563 103.7188,440.4531 Q103.5156,440.2656 103.4063,439.75 Q103.3594,439.3906 103.1719,439.2031 Q102.8438,438.8281 102.2344,438.6094 Q101.625,438.3906 101,438.3906 Q100.2344,438.3906 99.5938,438.7188 Q98.9688,439.0469 98.4688,439.7969 Q97.9844,440.5469 97.9844,441.5781 L97.9844,442.6719 Q97.9844,443.9063 98.875,444.7344 Q99.7656,445.5469 101.3594,445.5469 Q102.2969,445.5469 102.9531,445.2969 Q103.3438,445.1406 103.7656,444.7031 Q104.0313,444.4375 104.1719,444.3594 Q104.3281,444.2813 104.5313,444.2813 Q104.8594,444.2813 105.1094,444.5469 Q105.375,444.7969 105.375,445.1406 Q105.375,445.4844 105.0313,445.8906 Q104.5313,446.4688 103.7344,446.7969 Q102.6563,447.25 101.3594,447.25 Q99.8438,447.25 98.6406,446.625 Q97.6563,446.125 96.9688,445.0625 Q96.2813,443.9844 96.2813,442.7031 L96.2813,441.5469 Q96.2813,440.2188 96.8906,439.0781 Q97.5156,437.9219 98.6094,437.3125 Q99.7031,436.6875 100.9375,436.6875 Q101.6719,436.6875 102.3125,436.8594 Q102.9688,437.0156 103.5156,437.375 Z " fill="#000000"/><text fill="#000000" font-family="sans-serif" font-size="14" lengthAdjust="spacing" textLength="61" x="121.25" y="447.2285">Fragment</text><line style="stroke:#181818;stroke-width:0.5;" x1="38.5" x2="232.5" y1="457.5" y2="457.5"/><ellipse cx="48.5" cy="471.8047" fill="none" rx="3" ry="3" style="stroke:#038048;stroke-width:1.0;"/><text fill="#000000" font-family="sans-serif" font-size="14" lengthAdjust="spacing" textLength="83" x="57.5" y="476.0332">Name : string</text><ellipse cx="48.5" cy="489.4141" fill="none" rx="3" ry="3" style="stroke:#038048;stroke-width:1.0;"/><text fill="#000000" font-family="sans-serif" font-size="14" lengthAdjust="spacing" textLength="74" x="57.5" y="493.6426">Text : string</text><ellipse cx="48.5" cy="507.0234" fill="none" rx="3" ry="3" style="stroke:#038048;stroke-width:1.0;"/><text fill="#000000" font-family="sans-serif" font-size="14" lengthAdjust="spacing" textLength="170" x="57.5" y="511.252">Profiles : ICollection&lt;Guid&gt;</text><line style="stroke:#181818;stroke-width:0.5;" x1="38.5" x2="232.5" y1="518.3281" y2="518.3281"/></g><!--class PlaceholderTag--><g id="elem_PlaceholderTag"><rect codeLine="23" fill="#F1F1F1" height="188.875" id="PlaceholderTag" rx="2.5" ry="2.5" style="stroke:#181818;stroke-width:0.5;" width="404" x="370.5" y="168"/><ellipse cx="518.25" cy="184" fill="#ADD1B2" rx="11" ry="11" style="stroke:#181818;stroke-width:1.0;"/><path d="M521.0156,179.875 Q521.1719,179.6563 521.3594,179.5469 Q521.5469,179.4375 521.7656,179.4375 Q522.1406,179.4375 522.375,179.7031 Q522.6094,179.9531 522.6094,180.5625 L522.6094,182.0156 Q522.6094,182.625 522.375,182.8906 Q522.1406,183.1563 521.7656,183.1563 Q521.4219,183.1563 521.2188,182.9531 Q521.0156,182.7656 520.9063,182.25 Q520.8594,181.8906 520.6719,181.7031 Q520.3438,181.3281 519.7344,181.1094 Q519.125,180.8906 518.5,180.8906 Q517.7344,180.8906 517.0938,181.2188 Q516.4688,181.5469 515.9688,182.2969 Q515.4844,183.0469 515.4844,184.0781 L515.4844,185.1719 Q515.4844,186.4063 516.375,187.2344 Q517.2656,188.0469 518.8594,188.0469 Q519.7969,188.0469 520.4531,187.7969 Q520.8438,187.6406 521.2656,187.2031 Q521.5313,186.9375 521.6719,186.8594 Q521.8281,186.7813 522.0313,186.7813 Q522.3594,186.7813 522.6094,187.0469 Q522.875,187.2969 522.875,187.6406 Q522.875,187.9844 522.5313,188.3906 Q522.0313,188.9688 521.2344,189.2969 Q520.1563,189.75 518.8594,189.75 Q517.3438,189.75 516.1406,189.125 Q515.1563,188.625 514.4688,187.5625 Q513.7813,186.4844 513.7813,185.2031 L513.7813,184.0469 Q513.7813,182.7188 514.3906,181.5781 Q515.0156,180.4219 516.1094,179.8125 Q517.2031,179.1875 518.4375,179.1875 Q519.1719,179.1875 519.8125,179.3594 Q520.4688,179.5156 521.0156,179.875 Z " fill="#000000"/><text fill="#000000" font-family="sans-serif" font-size="14" lengthAdjust="spacing" textLength="100" x="538.75" y="189.7285">PlaceholderTag</text><line style="stroke:#181818;stroke-width:0.5;" x1="371.5" x2="773.5" y1="200" y2="200"/><ellipse cx="381.5" cy="214.3047" fill="none" rx="3" ry="3" style="stroke:#038048;stroke-width:1.0;"/><text fill="#000000" font-family="sans-serif" font-size="14" lengthAdjust="spacing" textLength="93" x="390.5" y="218.5332">Pattern : string</text><ellipse cx="381.5" cy="231.9141" fill="none" rx="3" ry="3" style="stroke:#038048;stroke-width:1.0;"/><text fill="#000000" font-family="sans-serif" font-size="14" lengthAdjust="spacing" textLength="130" x="390.5" y="236.1426">Replacement : string</text><ellipse cx="381.5" cy="249.5234" fill="none" rx="3" ry="3" style="stroke:#038048;stroke-width:1.0;"/><text fill="#000000" font-family="sans-serif" font-size="14" lengthAdjust="spacing" textLength="98" x="390.5" y="253.752">SourceId : Guid</text><ellipse cx="381.5" cy="267.1328" fill="none" rx="3" ry="3" style="stroke:#038048;stroke-width:1.0;"/><text fill="#000000" font-family="sans-serif" font-size="14" lengthAdjust="spacing" textLength="121" x="390.5" y="271.3613">StartMarker : string</text><ellipse cx="381.5" cy="284.7422" fill="none" rx="3" ry="3" style="stroke:#038048;stroke-width:1.0;"/><text fill="#000000" font-family="sans-serif" font-size="14" lengthAdjust="spacing" textLength="116" x="390.5" y="288.9707">EndMarker : string</text><ellipse cx="381.5" cy="302.3516" fill="none" rx="3" ry="3" style="stroke:#038048;stroke-width:1.0;"/><text fill="#000000" font-family="sans-serif" font-size="14" lengthAdjust="spacing" textLength="145" x="390.5" y="306.5801">RegexInstance : Regex</text><line style="stroke:#181818;stroke-width:0.5;" x1="371.5" x2="773.5" y1="313.6563" y2="313.6563"/><ellipse cx="381.5" cy="327.9609" fill="#84BE84" rx="3" ry="3" style="stroke:#038048;stroke-width:1.0;"/><text fill="#000000" font-family="sans-serif" font-size="14" lengthAdjust="spacing" textLength="79" x="390.5" y="332.1895">Build() : void</text><ellipse cx="381.5" cy="345.5703" fill="#84BE84" rx="3" ry="3" style="stroke:#038048;stroke-width:1.0;"/><text fill="#000000" font-family="sans-serif" font-size="14" lengthAdjust="spacing" textLength="378" x="390.5" y="349.7988">Replace(input : string, source : ReplacementSource) : string</text></g><!--class ReplacementSource--><g id="elem_ReplacementSource"><rect codeLine="34" fill="#F1F1F1" height="118.4375" id="ReplacementSource" rx="2.5" ry="2.5" style="stroke:#181818;stroke-width:0.5;" width="160" x="619.5" y="417"/><ellipse cx="634.5" cy="433" fill="#ADD1B2" rx="11" ry="11" style="stroke:#181818;stroke-width:1.0;"/><path d="M637.2656,428.875 Q637.4219,428.6563 637.6094,428.5469 Q637.7969,428.4375 638.0156,428.4375 Q638.3906,428.4375 638.625,428.7031 Q638.8594,428.9531 638.8594,429.5625 L638.8594,431.0156 Q638.8594,431.625 638.625,431.8906 Q638.3906,432.1563 638.0156,432.1563 Q637.6719,432.1563 637.4688,431.9531 Q637.2656,431.7656 637.1563,431.25 Q637.1094,430.8906 636.9219,430.7031 Q636.5938,430.3281 635.9844,430.1094 Q635.375,429.8906 634.75,429.8906 Q633.9844,429.8906 633.3438,430.2188 Q632.7188,430.5469 632.2188,431.2969 Q631.7344,432.0469 631.7344,433.0781 L631.7344,434.1719 Q631.7344,435.4063 632.625,436.2344 Q633.5156,437.0469 635.1094,437.0469 Q636.0469,437.0469 636.7031,436.7969 Q637.0938,436.6406 637.5156,436.2031 Q637.7813,435.9375 637.9219,435.8594 Q638.0781,435.7813 638.2813,435.7813 Q638.6094,435.7813 638.8594,436.0469 Q639.125,436.2969 639.125,436.6406 Q639.125,436.9844 638.7813,437.3906 Q638.2813,437.9688 637.4844,438.2969 Q636.4063,438.75 635.1094,438.75 Q633.5938,438.75 632.3906,438.125 Q631.4063,437.625 630.7188,436.5625 Q630.0313,435.4844 630.0313,434.2031 L630.0313,433.0469 Q630.0313,431.7188 630.6406,430.5781 Q631.2656,429.4219 632.3594,428.8125 Q633.4531,428.1875 634.6875,428.1875 Q635.4219,428.1875 636.0625,428.3594 Q636.7188,428.5156 637.2656,428.875 Z " fill="#000000"/><text fill="#000000" font-family="sans-serif" font-size="14" lengthAdjust="spacing" textLength="128" x="648.5" y="438.7285">ReplacementSource</text><line style="stroke:#181818;stroke-width:0.5;" x1="620.5" x2="778.5" y1="449" y2="449"/><ellipse cx="630.5" cy="463.3047" fill="none" rx="3" ry="3" style="stroke:#038048;stroke-width:1.0;"/><text fill="#000000" font-family="sans-serif" font-size="14" lengthAdjust="spacing" textLength="83" x="639.5" y="467.5332">Name : string</text><ellipse cx="630.5" cy="480.9141" fill="none" rx="3" ry="3" style="stroke:#038048;stroke-width:1.0;"/><text fill="#000000" font-family="sans-serif" font-size="14" lengthAdjust="spacing" textLength="74" x="639.5" y="485.1426">Text : string</text><ellipse cx="630.5" cy="498.5234" fill="none" rx="3" ry="3" style="stroke:#038048;stroke-width:1.0;"/><text fill="#000000" font-family="sans-serif" font-size="14" lengthAdjust="spacing" textLength="103" x="639.5" y="502.752">Date : DateTime</text><ellipse cx="630.5" cy="516.1328" fill="none" rx="3" ry="3" style="stroke:#038048;stroke-width:1.0;"/><text fill="#000000" font-family="sans-serif" font-size="14" lengthAdjust="spacing" textLength="124" x="639.5" y="520.3613">IsDateSource : bool</text><line style="stroke:#181818;stroke-width:0.5;" x1="620.5" x2="778.5" y1="527.4375" y2="527.4375"/></g><!--reverse link Entity to Profile--><g id="link_Entity_Profile"><path codeLine="41" d="M353.8654,118.0423 C318.4854,141.2823 290.61,159.6 251.27,185.44 " fill="none" id="Entity-backto-Profile" style="stroke:#181818;stroke-width:1.0;"/><polygon fill="none" points="368.91,108.16,350.5713,113.0275,357.1595,123.0572,368.91,108.16" style="stroke:#181818;stroke-width:1.0;"/></g><!--reverse link Entity to Fragment--><g id="link_Entity_Fragment"><path codeLine="42" d="M384.8608,121.7334 C369.3408,139.6134 364.78,146.99 352.5,168 C307.21,245.46 334.02,284.24 281.5,357 C262.81,382.9 237.03,406.26 212.33,425.23 " fill="none" id="Entity-backto-Fragment" style="stroke:#181818;stroke-width:1.0;"/><polygon fill="none" points="396.66,108.14,380.3297,117.8003,389.392,125.6664,396.66,108.14" style="stroke:#181818;stroke-width:1.0;"/></g><!--reverse link Entity to PlaceholderTag--><g id="link_Entity_PlaceholderTag"><path codeLine="43" d="M485.4105,123.386 C496.8105,141.466 500.5,147.31 513.51,167.94 " fill="none" id="Entity-backto-PlaceholderTag" style="stroke:#181818;stroke-width:1.0;"/><polygon fill="none" points="475.81,108.16,480.3351,126.5862,490.4858,120.1858,475.81,108.16" style="stroke:#181818;stroke-width:1.0;"/></g><!--reverse link Entity to ReplacementSource--><g id="link_Entity_ReplacementSource"><path codeLine="44" d="M538.3764,75.1078 C630.6664,92.8478 760.14,123.89 792.5,168 C842.19,235.73 820.02,277.63 792.5,357 C785.02,378.56 771.79,399.17 757.62,416.96 " fill="none" id="Entity-backto-ReplacementSource" style="stroke:#181818;stroke-width:1.0;"/><polygon fill="none" points="520.7,71.71,537.2438,80.9999,539.509,69.2156,520.7,71.71" style="stroke:#181818;stroke-width:1.0;"/></g><!--reverse link Profile to Fragment--><g id="link_Profile_Fragment"><path codeLine="46" d="M122.8318,351.554 C121.9318,380.094 122.74,399.78 124.5,425.32 " fill="none" id="Profile-backto-Fragment" style="stroke:#181818;stroke-width:1.0;stroke-dasharray:7.0,7.0;"/><polygon fill="#181818" points="123.21,339.56,119.0229,345.4309,122.8318,351.554,127.0189,345.6831,123.21,339.56" style="stroke:#181818;stroke-width:1.0;"/><text fill="#000000" font-family="sans-serif" font-size="13" lengthAdjust="spacing" textLength="7" x="114.8037" y="360.6617">1</text><text fill="#000000" font-family="sans-serif" font-size="13" lengthAdjust="spacing" textLength="20" x="101.5469" y="414.6">0..*</text></g><!--reverse link Fragment to Profile--><g id="link_Fragment_Profile"><path codeLine="47" d="M148.0216,413.3517 C149.8816,387.8117 149.47,368.1 148.52,339.56 " fill="none" id="Fragment-backto-Profile" style="stroke:#181818;stroke-width:1.0;stroke-dasharray:7.0,7.0;"/><polygon fill="#181818" points="147.15,425.32,151.5752,419.6264,148.0216,413.3517,143.5964,419.0453,147.15,425.32" style="stroke:#181818;stroke-width:1.0;"/><text fill="#000000" font-family="sans-serif" font-size="13" lengthAdjust="spacing" textLength="7" x="141.2961" y="414.6">1</text><text fill="#000000" font-family="sans-serif" font-size="13" lengthAdjust="spacing" textLength="20" x="128.789" y="360.6617">0..*</text></g><!--reverse link PlaceholderTag to ReplacementSource--><g id="link_PlaceholderTag_ReplacementSource"><path codeLine="48" d="M634.9384,367.4772 C647.1484,387.8072 653.54,398.45 664.63,416.93 " fill="none" id="PlaceholderTag-backto-ReplacementSource" style="stroke:#181818;stroke-width:1.0;stroke-dasharray:7.0,7.0;"/><polygon fill="#181818" points="628.76,357.19,628.4201,364.3931,634.9384,367.4772,635.2783,360.2741,628.76,357.19" style="stroke:#181818;stroke-width:1.0;"/></g><!--SRC=[bLDTJy8m57tVhsZs10YBlXf2ee1c3nW2-0FAUfcDNKlQ3Y7gVxShQySwD74lJUyvE_VSZ-AjqX9d6cKCAuNcN5DzGfyHCjyDIWcwHyyb9VLzAW5hg88pSsve0JMm48JkQ1lvZgApw5AA7MNWLLzm0OPe4bEUrx4dYVC2k5O6I6SqqrHmB4_ZAlaGbPJhISry8CIHUzJvwvlp8BpF5HJY0DTfMo6OTzsGNlU_gbtIPkA3No7wMXtlps8tSDHXh6wIhNyg60FR0bl_vAAL36Vm9XW1kS6vJxB4MeFaeUOAzXNV-WcWjIXb1k5yrnfBlS3o7MJumvoJwy0ASZYcN6dCiwfIUw-nnv8oqkiCnxhgKRul6rz3fAmbg-1jdstscvo-4ntIlpjUBMftarDL1TREYzqMaxH-6EElqSYDgXLpSsyJMzDgGHtxKUIUINmNeq6IeFWsIGPne-nNAo0uEy5kL8nkbXy0]--></g></svg>