<?xml version="1.0" encoding="us-ascii" standalone="no"?><svg xmlns="http://www.w3.org/2000/svg" xmlns:xlink="http://www.w3.org/1999/xlink" contentStyleType="text/css" height="526px" preserveAspectRatio="none" style="width:1287px;height:526px;background:#FFFFFF;" version="1.1" viewBox="0 0 1287 526" width="1287px" zoomAndPan="magnify"><defs/><g><!--class IFileStorage--><g id="elem_IFileStorage"><rect codeLine="2" fill="#F1F1F1" height="118.4375" id="IFileStorage" rx="2.5" ry="2.5" style="stroke:#181818;stroke-width:0.5;" width="173" x="1099" y="7"/><ellipse cx="1142.8" cy="23" fill="#B4A7E5" rx="11" ry="11" style="stroke:#181818;stroke-width:1.0;"/><path d="M1143.7531,19.6406 L1143.7531,26.2969 L1145.4719,26.2969 Q1146.0813,26.2969 1146.3469,26.5313 Q1146.6125,26.7656 1146.6125,27.1563 Q1146.6125,27.5313 1146.3469,27.7656 Q1146.0813,28 1145.4719,28 L1140.3313,28 Q1139.7219,28 1139.4563,27.7656 Q1139.1906,27.5313 1139.1906,27.1406 Q1139.1906,26.7656 1139.4563,26.5313 Q1139.7219,26.2969 1140.3313,26.2969 L1142.05,26.2969 L1142.05,19.6406 L1140.3313,19.6406 Q1139.7219,19.6406 1139.4563,19.4063 Q1139.1906,19.1719 1139.1906,18.7813 Q1139.1906,18.4063 1139.4563,18.1719 Q1139.7219,17.9375 1140.3313,17.9375 L1145.4719,17.9375 Q1146.0813,17.9375 1146.3469,18.1719 Q1146.6125,18.4063 1146.6125,18.7813 Q1146.6125,19.1719 1146.3469,19.4063 Q1146.0813,19.6406 1145.4719,19.6406 L1143.7531,19.6406 Z " fill="#000000"/><text fill="#000000" font-family="sans-serif" font-size="14" font-style="italic" lengthAdjust="spacing" textLength="77" x="1163.2" y="28.7285">IFileStorage</text><line style="stroke:#181818;stroke-width:0.5;" x1="1100" x2="1271" y1="39" y2="39"/><line style="stroke:#181818;stroke-width:0.5;" x1="1100" x2="1271" y1="47" y2="47"/><ellipse cx="1110" cy="61.3047" fill="#84BE84" rx="3" ry="3" style="stroke:#038048;stroke-width:1.0;"/><text fill="#000000" font-family="sans-serif" font-size="14" lengthAdjust="spacing" textLength="147" x="1119" y="65.5332">GetRepository&lt;T&gt;() : T</text><ellipse cx="1110" cy="78.9141" fill="#84BE84" rx="3" ry="3" style="stroke:#038048;stroke-width:1.0;"/><text fill="#000000" font-family="sans-serif" font-size="14" lengthAdjust="spacing" textLength="80" x="1119" y="83.1426">Load() : void</text><ellipse cx="1110" cy="96.5234" fill="#84BE84" rx="3" ry="3" style="stroke:#038048;stroke-width:1.0;"/><text fill="#000000" font-family="sans-serif" font-size="14" lengthAdjust="spacing" textLength="80" x="1119" y="100.752">Save() : void</text><ellipse cx="1110" cy="114.1328" fill="#84BE84" rx="3" ry="3" style="stroke:#038048;stroke-width:1.0;"/><text fill="#000000" font-family="sans-serif" font-size="14" lengthAdjust="spacing" textLength="89" x="1119" y="118.3613">Delete() : void</text></g><!--class IFileRepository--><g id="elem_IFileRepository"><rect codeLine="9" fill="#F1F1F1" height="100.8281" id="IFileRepository" rx="2.5" ry="2.5" style="stroke:#181818;stroke-width:0.5;" width="127" x="590" y="193.5"/><ellipse cx="605" cy="209.5" fill="#B4A7E5" rx="11" ry="11" style="stroke:#181818;stroke-width:1.0;"/><path d="M605.9531,206.1406 L605.9531,212.7969 L607.6719,212.7969 Q608.2813,212.7969 608.5469,213.0313 Q608.8125,213.2656 608.8125,213.6563 Q608.8125,214.0313 608.5469,214.2656 Q608.2813,214.5 607.6719,214.5 L602.5313,214.5 Q601.9219,214.5 601.6563,214.2656 Q601.3906,214.0313 601.3906,213.6406 Q601.3906,213.2656 601.6563,213.0313 Q601.9219,212.7969 602.5313,212.7969 L604.25,212.7969 L604.25,206.1406 L602.5313,206.1406 Q601.9219,206.1406 601.6563,205.9063 Q601.3906,205.6719 601.3906,205.2813 Q601.3906,204.9063 601.6563,204.6719 Q601.9219,204.4375 602.5313,204.4375 L607.6719,204.4375 Q608.2813,204.4375 608.5469,204.6719 Q608.8125,204.9063 608.8125,205.2813 Q608.8125,205.6719 608.5469,205.9063 Q608.2813,206.1406 607.6719,206.1406 L605.9531,206.1406 Z " fill="#000000"/><text fill="#000000" font-family="sans-serif" font-size="14" font-style="italic" lengthAdjust="spacing" textLength="95" x="619" y="215.2285">IFileRepository</text><line style="stroke:#181818;stroke-width:0.5;" x1="591" x2="716" y1="225.5" y2="225.5"/><line style="stroke:#181818;stroke-width:0.5;" x1="591" x2="716" y1="233.5" y2="233.5"/><ellipse cx="601" cy="247.8047" fill="#84BE84" rx="3" ry="3" style="stroke:#038048;stroke-width:1.0;"/><text fill="#000000" font-family="sans-serif" font-size="14" lengthAdjust="spacing" textLength="80" x="610" y="252.0332">Load() : void</text><ellipse cx="601" cy="265.4141" fill="#84BE84" rx="3" ry="3" style="stroke:#038048;stroke-width:1.0;"/><text fill="#000000" font-family="sans-serif" font-size="14" lengthAdjust="spacing" textLength="80" x="610" y="269.6426">Save() : void</text><ellipse cx="601" cy="283.0234" fill="#84BE84" rx="3" ry="3" style="stroke:#038048;stroke-width:1.0;"/><text fill="#000000" font-family="sans-serif" font-size="14" lengthAdjust="spacing" textLength="89" x="610" y="287.252">Delete() : void</text></g><!--class IRepository--><g id="elem_IRepository"><rect codeLine="15" fill="#F1F1F1" height="118.4375" id="IRepository" rx="2.5" ry="2.5" style="stroke:#181818;stroke-width:0.5;" width="278" x="276.5" y="185"/><ellipse cx="369.75" cy="201" fill="#B4A7E5" rx="11" ry="11" style="stroke:#181818;stroke-width:1.0;"/><path d="M370.7031,197.6406 L370.7031,204.2969 L372.4219,204.2969 Q373.0313,204.2969 373.2969,204.5313 Q373.5625,204.7656 373.5625,205.1563 Q373.5625,205.5313 373.2969,205.7656 Q373.0313,206 372.4219,206 L367.2813,206 Q366.6719,206 366.4063,205.7656 Q366.1406,205.5313 366.1406,205.1406 Q366.1406,204.7656 366.4063,204.5313 Q366.6719,204.2969 367.2813,204.2969 L369,204.2969 L369,197.6406 L367.2813,197.6406 Q366.6719,197.6406 366.4063,197.4063 Q366.1406,197.1719 366.1406,196.7813 Q366.1406,196.4063 366.4063,196.1719 Q366.6719,195.9375 367.2813,195.9375 L372.4219,195.9375 Q373.0313,195.9375 373.2969,196.1719 Q373.5625,196.4063 373.5625,196.7813 Q373.5625,197.1719 373.2969,197.4063 Q373.0313,197.6406 372.4219,197.6406 L370.7031,197.6406 Z " fill="#000000"/><text fill="#000000" font-family="sans-serif" font-size="14" font-style="italic" lengthAdjust="spacing" textLength="72" x="390.25" y="206.7285">IRepository</text><rect fill="#FFFFFF" height="17.0938" style="stroke:#181818;stroke-width:1.0;stroke-dasharray:2.0,2.0;" width="9" x="548.5" y="182"/><text fill="#000000" font-family="sans-serif" font-size="12" font-style="italic" lengthAdjust="spacing" textLength="7" x="549.5" y="195.457">T</text><line style="stroke:#181818;stroke-width:0.5;" x1="277.5" x2="553.5" y1="217" y2="217"/><line style="stroke:#181818;stroke-width:0.5;" x1="277.5" x2="553.5" y1="225" y2="225"/><ellipse cx="287.5" cy="239.3047" fill="#84BE84" rx="3" ry="3" style="stroke:#038048;stroke-width:1.0;"/><text fill="#000000" font-family="sans-serif" font-size="14" lengthAdjust="spacing" textLength="252" x="296.5" y="243.5332">TryGet(id : Guid, out instance : T) : bool</text><ellipse cx="287.5" cy="256.9141" fill="#84BE84" rx="3" ry="3" style="stroke:#038048;stroke-width:1.0;"/><text fill="#000000" font-family="sans-serif" font-size="14" lengthAdjust="spacing" textLength="127" x="296.5" y="261.1426">All() : ICollection&lt;T&gt;</text><ellipse cx="287.5" cy="274.5234" fill="#84BE84" rx="3" ry="3" style="stroke:#038048;stroke-width:1.0;"/><text fill="#000000" font-family="sans-serif" font-size="14" lengthAdjust="spacing" textLength="183" x="296.5" y="278.752">AddOrUpdate(data : T) : void</text><ellipse cx="287.5" cy="292.1328" fill="#84BE84" rx="3" ry="3" style="stroke:#038048;stroke-width:1.0;"/><text fill="#000000" font-family="sans-serif" font-size="14" lengthAdjust="spacing" textLength="142" x="296.5" y="296.3613">Delete(id : Guid) : void</text></g><!--class IProfileRepository--><g id="elem_IProfileRepository"><rect codeLine="22" fill="#F1F1F1" height="48" id="IProfileRepository" rx="2.5" ry="2.5" style="stroke:#181818;stroke-width:0.5;" width="144" x="882.5" y="363"/><ellipse cx="897.5" cy="379" fill="#B4A7E5" rx="11" ry="11" style="stroke:#181818;stroke-width:1.0;"/><path d="M898.4531,375.6406 L898.4531,382.2969 L900.1719,382.2969 Q900.7813,382.2969 901.0469,382.5313 Q901.3125,382.7656 901.3125,383.1563 Q901.3125,383.5313 901.0469,383.7656 Q900.7813,384 900.1719,384 L895.0313,384 Q894.4219,384 894.1563,383.7656 Q893.8906,383.5313 893.8906,383.1406 Q893.8906,382.7656 894.1563,382.5313 Q894.4219,382.2969 895.0313,382.2969 L896.75,382.2969 L896.75,375.6406 L895.0313,375.6406 Q894.4219,375.6406 894.1563,375.4063 Q893.8906,375.1719 893.8906,374.7813 Q893.8906,374.4063 894.1563,374.1719 Q894.4219,373.9375 895.0313,373.9375 L900.1719,373.9375 Q900.7813,373.9375 901.0469,374.1719 Q901.3125,374.4063 901.3125,374.7813 Q901.3125,375.1719 901.0469,375.4063 Q900.7813,375.6406 900.1719,375.6406 L898.4531,375.6406 Z " fill="#000000"/><text fill="#000000" font-family="sans-serif" font-size="14" font-style="italic" lengthAdjust="spacing" textLength="112" x="911.5" y="384.7285">IProfileRepository</text><line style="stroke:#181818;stroke-width:0.5;" x1="883.5" x2="1025.5" y1="395" y2="395"/><line style="stroke:#181818;stroke-width:0.5;" x1="883.5" x2="1025.5" y1="403" y2="403"/></g><!--class IFragmentRepository--><g id="elem_IFragmentRepository"><rect codeLine="23" fill="#F1F1F1" height="48" id="IFragmentRepository" rx="2.5" ry="2.5" style="stroke:#181818;stroke-width:0.5;" width="165" x="7" y="363"/><ellipse cx="22" cy="379" fill="#B4A7E5" rx="11" ry="11" style="stroke:#181818;stroke-width:1.0;"/><path d="M22.9531,375.6406 L22.9531,382.2969 L24.6719,382.2969 Q25.2813,382.2969 25.5469,382.5313 Q25.8125,382.7656 25.8125,383.1563 Q25.8125,383.5313 25.5469,383.7656 Q25.2813,384 24.6719,384 L19.5313,384 Q18.9219,384 18.6563,383.7656 Q18.3906,383.5313 18.3906,383.1406 Q18.3906,382.7656 18.6563,382.5313 Q18.9219,382.2969 19.5313,382.2969 L21.25,382.2969 L21.25,375.6406 L19.5313,375.6406 Q18.9219,375.6406 18.6563,375.4063 Q18.3906,375.1719 18.3906,374.7813 Q18.3906,374.4063 18.6563,374.1719 Q18.9219,373.9375 19.5313,373.9375 L24.6719,373.9375 Q25.2813,373.9375 25.5469,374.1719 Q25.8125,374.4063 25.8125,374.7813 Q25.8125,375.1719 25.5469,375.4063 Q25.2813,375.6406 24.6719,375.6406 L22.9531,375.6406 Z " fill="#000000"/><text fill="#000000" font-family="sans-serif" font-size="14" font-style="italic" lengthAdjust="spacing" textLength="133" x="36" y="384.7285">IFragmentRepository</text><line style="stroke:#181818;stroke-width:0.5;" x1="8" x2="171" y1="395" y2="395"/><line style="stroke:#181818;stroke-width:0.5;" x1="8" x2="171" y1="403" y2="403"/></g><!--class IPlaceholderTagRepository--><g id="elem_IPlaceholderTagRepository"><rect codeLine="24" fill="#F1F1F1" height="48" id="IPlaceholderTagRepository" rx="2.5" ry="2.5" style="stroke:#181818;stroke-width:0.5;" width="204" x="643.5" y="363"/><ellipse cx="658.5" cy="379" fill="#B4A7E5" rx="11" ry="11" style="stroke:#181818;stroke-width:1.0;"/><path d="M659.4531,375.6406 L659.4531,382.2969 L661.1719,382.2969 Q661.7813,382.2969 662.0469,382.5313 Q662.3125,382.7656 662.3125,383.1563 Q662.3125,383.5313 662.0469,383.7656 Q661.7813,384 661.1719,384 L656.0313,384 Q655.4219,384 655.1563,383.7656 Q654.8906,383.5313 654.8906,383.1406 Q654.8906,382.7656 655.1563,382.5313 Q655.4219,382.2969 656.0313,382.2969 L657.75,382.2969 L657.75,375.6406 L656.0313,375.6406 Q655.4219,375.6406 655.1563,375.4063 Q654.8906,375.1719 654.8906,374.7813 Q654.8906,374.4063 655.1563,374.1719 Q655.4219,373.9375 656.0313,373.9375 L661.1719,373.9375 Q661.7813,373.9375 662.0469,374.1719 Q662.3125,374.4063 662.3125,374.7813 Q662.3125,375.1719 662.0469,375.4063 Q661.7813,375.6406 661.1719,375.6406 L659.4531,375.6406 Z " fill="#000000"/><text fill="#000000" font-family="sans-serif" font-size="14" font-style="italic" lengthAdjust="spacing" textLength="172" x="672.5" y="384.7285">IPlaceholderTagRepository</text><line style="stroke:#181818;stroke-width:0.5;" x1="644.5" x2="846.5" y1="395" y2="395"/><line style="stroke:#181818;stroke-width:0.5;" x1="644.5" x2="846.5" y1="403" y2="403"/></g><!--class IReplacementSourceRepository--><g id="elem_IReplacementSourceRepository"><rect codeLine="25" fill="#F1F1F1" height="48" id="IReplacementSourceRepository" rx="2.5" ry="2.5" style="stroke:#181818;stroke-width:0.5;" width="232" x="207.5" y="363"/><ellipse cx="222.5" cy="379" fill="#B4A7E5" rx="11" ry="11" style="stroke:#181818;stroke-width:1.0;"/><path d="M223.4531,375.6406 L223.4531,382.2969 L225.1719,382.2969 Q225.7813,382.2969 226.0469,382.5313 Q226.3125,382.7656 226.3125,383.1563 Q226.3125,383.5313 226.0469,383.7656 Q225.7813,384 225.1719,384 L220.0313,384 Q219.4219,384 219.1563,383.7656 Q218.8906,383.5313 218.8906,383.1406 Q218.8906,382.7656 219.1563,382.5313 Q219.4219,382.2969 220.0313,382.2969 L221.75,382.2969 L221.75,375.6406 L220.0313,375.6406 Q219.4219,375.6406 219.1563,375.4063 Q218.8906,375.1719 218.8906,374.7813 Q218.8906,374.4063 219.1563,374.1719 Q219.4219,373.9375 220.0313,373.9375 L225.1719,373.9375 Q225.7813,373.9375 226.0469,374.1719 Q226.3125,374.4063 226.3125,374.7813 Q226.3125,375.1719 226.0469,375.4063 Q225.7813,375.6406 225.1719,375.6406 L223.4531,375.6406 Z " fill="#000000"/><text fill="#000000" font-family="sans-serif" font-size="14" font-style="italic" lengthAdjust="spacing" textLength="200" x="236.5" y="384.7285">IReplacementSourceRepository</text><line style="stroke:#181818;stroke-width:0.5;" x1="208.5" x2="438.5" y1="395" y2="395"/><line style="stroke:#181818;stroke-width:0.5;" x1="208.5" x2="438.5" y1="403" y2="403"/></g><!--class FileRepository--><g id="elem_FileRepository"><rect codeLine="27" fill="#F1F1F1" height="48" id="FileRepository" rx="2.5" ry="2.5" style="stroke:#181818;stroke-width:0.5;" width="134" x="474.5" y="363"/><ellipse cx="489.5" cy="379" fill="#A9DCDF" rx="11" ry="11" style="stroke:#181818;stroke-width:1.0;"/><path d="M491.6875,380.7656 L487.5469,380.7656 L487.125,381.7969 L487.5469,381.7969 Q488.1563,381.7969 488.4219,382.0313 Q488.6875,382.2656 488.6875,382.6563 Q488.6875,383.0313 488.4219,383.2656 Q488.1563,383.5 487.5469,383.5 L485.25,383.5 Q484.6406,383.5 484.3906,383.2656 Q484.125,383.0313 484.125,382.6406 Q484.125,382.2656 484.4063,382.0313 Q484.6719,381.7813 485.2969,381.7969 L487.9688,375.1406 L486.8594,375.1406 Q486.25,375.1406 485.9844,374.9063 Q485.7188,374.6719 485.7188,374.2813 Q485.7188,373.9063 485.9844,373.6719 Q486.25,373.4375 486.8594,373.4375 L490.5313,373.4375 L493.9219,381.7969 Q494.5156,381.7969 494.7031,381.9375 Q495.0938,382.2031 495.0938,382.6563 Q495.0938,383.0313 494.8281,383.2656 Q494.5781,383.5 493.9688,383.5 L491.6719,383.5 Q491.0625,383.5 490.7969,383.2656 Q490.5313,383.0313 490.5313,382.6406 Q490.5313,382.2656 490.7969,382.0313 Q491.0625,381.7969 491.6719,381.7969 L492.0938,381.7969 L491.6875,380.7656 Z M490.9688,379.0625 L489.6094,375.6875 L488.2344,379.0625 L490.9688,379.0625 Z " fill="#000000"/><text fill="#000000" font-family="sans-serif" font-size="14" font-style="italic" lengthAdjust="spacing" textLength="91" x="503.5" y="384.7285">FileRepository</text><rect fill="#FFFFFF" height="17.0938" style="stroke:#181818;stroke-width:1.0;stroke-dasharray:2.0,2.0;" width="9" x="602.5" y="360"/><text fill="#000000" font-family="sans-serif" font-size="12" font-style="italic" lengthAdjust="spacing" textLength="7" x="603.5" y="373.457">T</text><line style="stroke:#181818;stroke-width:0.5;" x1="475.5" x2="607.5" y1="395" y2="395"/><line style="stroke:#181818;stroke-width:0.5;" x1="475.5" x2="607.5" y1="403" y2="403"/></g><!--class FileStorage--><g id="elem_FileStorage"><rect codeLine="28" fill="#F1F1F1" height="48" id="FileStorage" rx="2.5" ry="2.5" style="stroke:#181818;stroke-width:0.5;" width="105" x="1133" y="220"/><ellipse cx="1148" cy="236" fill="#ADD1B2" rx="11" ry="11" style="stroke:#181818;stroke-width:1.0;"/><path d="M1150.7656,231.875 Q1150.9219,231.6563 1151.1094,231.5469 Q1151.2969,231.4375 1151.5156,231.4375 Q1151.8906,231.4375 1152.125,231.7031 Q1152.3594,231.9531 1152.3594,232.5625 L1152.3594,234.0156 Q1152.3594,234.625 1152.125,234.8906 Q1151.8906,235.1563 1151.5156,235.1563 Q1151.1719,235.1563 1150.9688,234.9531 Q1150.7656,234.7656 1150.6563,234.25 Q1150.6094,233.8906 1150.4219,233.7031 Q1150.0938,233.3281 1149.4844,233.1094 Q1148.875,232.8906 1148.25,232.8906 Q1147.4844,232.8906 1146.8438,233.2188 Q1146.2188,233.5469 1145.7188,234.2969 Q1145.2344,235.0469 1145.2344,236.0781 L1145.2344,237.1719 Q1145.2344,238.4063 1146.125,239.2344 Q1147.0156,240.0469 1148.6094,240.0469 Q1149.5469,240.0469 1150.2031,239.7969 Q1150.5938,239.6406 1151.0156,239.2031 Q1151.2813,238.9375 1151.4219,238.8594 Q1151.5781,238.7813 1151.7813,238.7813 Q1152.1094,238.7813 1152.3594,239.0469 Q1152.625,239.2969 1152.625,239.6406 Q1152.625,239.9844 1152.2813,240.3906 Q1151.7813,240.9688 1150.9844,241.2969 Q1149.9063,241.75 1148.6094,241.75 Q1147.0938,241.75 1145.8906,241.125 Q1144.9063,240.625 1144.2188,239.5625 Q1143.5313,238.4844 1143.5313,237.2031 L1143.5313,236.0469 Q1143.5313,234.7188 1144.1406,233.5781 Q1144.7656,232.4219 1145.8594,231.8125 Q1146.9531,231.1875 1148.1875,231.1875 Q1148.9219,231.1875 1149.5625,231.3594 Q1150.2188,231.5156 1150.7656,231.875 Z " fill="#000000"/><text fill="#000000" font-family="sans-serif" font-size="14" lengthAdjust="spacing" textLength="73" x="1162" y="241.7285">FileStorage</text><line style="stroke:#181818;stroke-width:0.5;" x1="1134" x2="1237" y1="252" y2="252"/><line style="stroke:#181818;stroke-width:0.5;" x1="1134" x2="1237" y1="260" y2="260"/></g><!--class ProfileRepository--><g id="elem_ProfileRepository"><rect codeLine="29" fill="#F1F1F1" height="48" id="ProfileRepository" rx="2.5" ry="2.5" style="stroke:#181818;stroke-width:0.5;" width="140" x="904.5" y="471"/><ellipse cx="919.5" cy="487" fill="#ADD1B2" rx="11" ry="11" style="stroke:#181818;stroke-width:1.0;"/><path d="M922.2656,482.875 Q922.4219,482.6563 922.6094,482.5469 Q922.7969,482.4375 923.0156,482.4375 Q923.3906,482.4375 923.625,482.7031 Q923.8594,482.9531 923.8594,483.5625 L923.8594,485.0156 Q923.8594,485.625 923.625,485.8906 Q923.3906,486.1563 923.0156,486.1563 Q922.6719,486.1563 922.4688,485.9531 Q922.2656,485.7656 922.1563,485.25 Q922.1094,484.8906 921.9219,484.7031 Q921.5938,484.3281 920.9844,484.1094 Q920.375,483.8906 919.75,483.8906 Q918.9844,483.8906 918.3438,484.2188 Q917.7188,484.5469 917.2188,485.2969 Q916.7344,486.0469 916.7344,487.0781 L916.7344,488.1719 Q916.7344,489.4063 917.625,490.2344 Q918.5156,491.0469 920.1094,491.0469 Q921.0469,491.0469 921.7031,490.7969 Q922.0938,490.6406 922.5156,490.2031 Q922.7813,489.9375 922.9219,489.8594 Q923.0781,489.7813 923.2813,489.7813 Q923.6094,489.7813 923.8594,490.0469 Q924.125,490.2969 924.125,490.6406 Q924.125,490.9844 923.7813,491.3906 Q923.2813,491.9688 922.4844,492.2969 Q921.4063,492.75 920.1094,492.75 Q918.5938,492.75 917.3906,492.125 Q916.4063,491.625 915.7188,490.5625 Q915.0313,489.4844 915.0313,488.2031 L915.0313,487.0469 Q915.0313,485.7188 915.6406,484.5781 Q916.2656,483.4219 917.3594,482.8125 Q918.4531,482.1875 919.6875,482.1875 Q920.4219,482.1875 921.0625,482.3594 Q921.7188,482.5156 922.2656,482.875 Z " fill="#000000"/><text fill="#000000" font-family="sans-serif" font-size="14" lengthAdjust="spacing" textLength="108" x="933.5" y="492.7285">ProfileRepository</text><line style="stroke:#181818;stroke-width:0.5;" x1="905.5" x2="1043.5" y1="503" y2="503"/><line style="stroke:#181818;stroke-width:0.5;" x1="905.5" x2="1043.5" y1="511" y2="511"/></g><!--class FragmentRepository--><g id="elem_FragmentRepository"><rect codeLine="30" fill="#F1F1F1" height="48" id="FragmentRepository" rx="2.5" ry="2.5" style="stroke:#181818;stroke-width:0.5;" width="161" x="210" y="471"/><ellipse cx="225" cy="487" fill="#ADD1B2" rx="11" ry="11" style="stroke:#181818;stroke-width:1.0;"/><path d="M227.7656,482.875 Q227.9219,482.6563 228.1094,482.5469 Q228.2969,482.4375 228.5156,482.4375 Q228.8906,482.4375 229.125,482.7031 Q229.3594,482.9531 229.3594,483.5625 L229.3594,485.0156 Q229.3594,485.625 229.125,485.8906 Q228.8906,486.1563 228.5156,486.1563 Q228.1719,486.1563 227.9688,485.9531 Q227.7656,485.7656 227.6563,485.25 Q227.6094,484.8906 227.4219,484.7031 Q227.0938,484.3281 226.4844,484.1094 Q225.875,483.8906 225.25,483.8906 Q224.4844,483.8906 223.8438,484.2188 Q223.2188,484.5469 222.7188,485.2969 Q222.2344,486.0469 222.2344,487.0781 L222.2344,488.1719 Q222.2344,489.4063 223.125,490.2344 Q224.0156,491.0469 225.6094,491.0469 Q226.5469,491.0469 227.2031,490.7969 Q227.5938,490.6406 228.0156,490.2031 Q228.2813,489.9375 228.4219,489.8594 Q228.5781,489.7813 228.7813,489.7813 Q229.1094,489.7813 229.3594,490.0469 Q229.625,490.2969 229.625,490.6406 Q229.625,490.9844 229.2813,491.3906 Q228.7813,491.9688 227.9844,492.2969 Q226.9063,492.75 225.6094,492.75 Q224.0938,492.75 222.8906,492.125 Q221.9063,491.625 221.2188,490.5625 Q220.5313,489.4844 220.5313,488.2031 L220.5313,487.0469 Q220.5313,485.7188 221.1406,484.5781 Q221.7656,483.4219 222.8594,482.8125 Q223.9531,482.1875 225.1875,482.1875 Q225.9219,482.1875 226.5625,482.3594 Q227.2188,482.5156 227.7656,482.875 Z " fill="#000000"/><text fill="#000000" font-family="sans-serif" font-size="14" lengthAdjust="spacing" textLength="129" x="239" y="492.7285">FragmentRepository</text><line style="stroke:#181818;stroke-width:0.5;" x1="211" x2="370" y1="503" y2="503"/><line style="stroke:#181818;stroke-width:0.5;" x1="211" x2="370" y1="511" y2="511"/></g><!--class PlaceholderTagRepository--><g id="elem_PlaceholderTagRepository"><rect codeLine="31" fill="#F1F1F1" height="48" id="PlaceholderTagRepository" rx="2.5" ry="2.5" style="stroke:#181818;stroke-width:0.5;" width="200" x="669.5" y="471"/><ellipse cx="684.5" cy="487" fill="#ADD1B2" rx="11" ry="11" style="stroke:#181818;stroke-width:1.0;"/><path d="M687.2656,482.875 Q687.4219,482.6563 687.6094,482.5469 Q687.7969,482.4375 688.0156,482.4375 Q688.3906,482.4375 688.625,482.7031 Q688.8594,482.9531 688.8594,483.5625 L688.8594,485.0156 Q688.8594,485.625 688.625,485.8906 Q688.3906,486.1563 688.0156,486.1563 Q687.6719,486.1563 687.4688,485.9531 Q687.2656,485.7656 687.1563,485.25 Q687.1094,484.8906 686.9219,484.7031 Q686.5938,484.3281 685.9844,484.1094 Q685.375,483.8906 684.75,483.8906 Q683.9844,483.8906 683.3438,484.2188 Q682.7188,484.5469 682.2188,485.2969 Q681.7344,486.0469 681.7344,487.0781 L681.7344,488.1719 Q681.7344,489.4063 682.625,490.2344 Q683.5156,491.0469 685.1094,491.0469 Q686.0469,491.0469 686.7031,490.7969 Q687.0938,490.6406 687.5156,490.2031 Q687.7813,489.9375 687.9219,489.8594 Q688.0781,489.7813 688.2813,489.7813 Q688.6094,489.7813 688.8594,490.0469 Q689.125,490.2969 689.125,490.6406 Q689.125,490.9844 688.7813,491.3906 Q688.2813,491.9688 687.4844,492.2969 Q686.4063,492.75 685.1094,492.75 Q683.5938,492.75 682.3906,492.125 Q681.4063,491.625 680.7188,490.5625 Q680.0313,489.4844 680.0313,488.2031 L680.0313,487.0469 Q680.0313,485.7188 680.6406,484.5781 Q681.2656,483.4219 682.3594,482.8125 Q683.4531,482.1875 684.6875,482.1875 Q685.4219,482.1875 686.0625,482.3594 Q686.7188,482.5156 687.2656,482.875 Z " fill="#000000"/><text fill="#000000" font-family="sans-serif" font-size="14" lengthAdjust="spacing" textLength="168" x="698.5" y="492.7285">PlaceholderTagRepository</text><line style="stroke:#181818;stroke-width:0.5;" x1="670.5" x2="868.5" y1="503" y2="503"/><line style="stroke:#181818;stroke-width:0.5;" x1="670.5" x2="868.5" y1="511" y2="511"/></g><!--class ReplacementSourceRepository--><g id="elem_ReplacementSourceRepository"><rect codeLine="32" fill="#F1F1F1" height="48" id="ReplacementSourceRepository" rx="2.5" ry="2.5" style="stroke:#181818;stroke-width:0.5;" width="228" x="406.5" y="471"/><ellipse cx="421.5" cy="487" fill="#ADD1B2" rx="11" ry="11" style="stroke:#181818;stroke-width:1.0;"/><path d="M424.2656,482.875 Q424.4219,482.6563 424.6094,482.5469 Q424.7969,482.4375 425.0156,482.4375 Q425.3906,482.4375 425.625,482.7031 Q425.8594,482.9531 425.8594,483.5625 L425.8594,485.0156 Q425.8594,485.625 425.625,485.8906 Q425.3906,486.1563 425.0156,486.1563 Q424.6719,486.1563 424.4688,485.9531 Q424.2656,485.7656 424.1563,485.25 Q424.1094,484.8906 423.9219,484.7031 Q423.5938,484.3281 422.9844,484.1094 Q422.375,483.8906 421.75,483.8906 Q420.9844,483.8906 420.3438,484.2188 Q419.7188,484.5469 419.2188,485.2969 Q418.7344,486.0469 418.7344,487.0781 L418.7344,488.1719 Q418.7344,489.4063 419.625,490.2344 Q420.5156,491.0469 422.1094,491.0469 Q423.0469,491.0469 423.7031,490.7969 Q424.0938,490.6406 424.5156,490.2031 Q424.7813,489.9375 424.9219,489.8594 Q425.0781,489.7813 425.2813,489.7813 Q425.6094,489.7813 425.8594,490.0469 Q426.125,490.2969 426.125,490.6406 Q426.125,490.9844 425.7813,491.3906 Q425.2813,491.9688 424.4844,492.2969 Q423.4063,492.75 422.1094,492.75 Q420.5938,492.75 419.3906,492.125 Q418.4063,491.625 417.7188,490.5625 Q417.0313,489.4844 417.0313,488.2031 L417.0313,487.0469 Q417.0313,485.7188 417.6406,484.5781 Q418.2656,483.4219 419.3594,482.8125 Q420.4531,482.1875 421.6875,482.1875 Q422.4219,482.1875 423.0625,482.3594 Q423.7188,482.5156 424.2656,482.875 Z " fill="#000000"/><text fill="#000000" font-family="sans-serif" font-size="14" lengthAdjust="spacing" textLength="196" x="435.5" y="492.7285">ReplacementSourceRepository</text><line style="stroke:#181818;stroke-width:0.5;" x1="407.5" x2="633.5" y1="503" y2="503"/><line style="stroke:#181818;stroke-width:0.5;" x1="407.5" x2="633.5" y1="511" y2="511"/></g><!--reverse link IRepository to IProfileRepository--><g id="link_IRepository_IProfileRepository"><path codeLine="34" d="M571.8466,303.042 C577.8466,304.922 566.63,301.33 572.5,303 C700.32,339.47 736,333.03 865.5,363 C870.94,364.26 876.56,365.6 882.2,366.99 " fill="none" id="IRepository-backto-IProfileRepository" style="stroke:#181818;stroke-width:1.0;"/><polygon fill="none" points="554.67,297.66,570.0526,308.7675,573.6406,297.3165,554.67,297.66" style="stroke:#181818;stroke-width:1.0;"/></g><!--reverse link IRepository to IFragmentRepository--><g id="link_IRepository_IFragmentRepository"><path codeLine="35" d="M264.5001,310.308 C215.9201,331.328 180.37,346.7 142.8,362.95 " fill="none" id="IRepository-backto-IFragmentRepository" style="stroke:#181818;stroke-width:1.0;"/><polygon fill="none" points="281.02,303.16,262.1175,304.8013,266.8828,315.8146,281.02,303.16" style="stroke:#181818;stroke-width:1.0;"/></g><!--reverse link IRepository to IPlaceholderTagRepository--><g id="link_IRepository_IPlaceholderTagRepository"><path codeLine="36" d="M568.1816,310.2343 C617.3616,331.2543 653.52,346.7 691.55,362.95 " fill="none" id="IRepository-backto-IPlaceholderTagRepository" style="stroke:#181818;stroke-width:1.0;"/><polygon fill="none" points="551.63,303.16,565.8235,315.7515,570.5397,304.7171,551.63,303.16" style="stroke:#181818;stroke-width:1.0;"/></g><!--reverse link IRepository to IReplacementSourceRepository--><g id="link_IRepository_IReplacementSourceRepository"><path codeLine="37" d="M367.7154,318.2358 C354.0554,339.1758 349.25,346.54 338.66,362.77 " fill="none" id="IRepository-backto-IReplacementSourceRepository" style="stroke:#181818;stroke-width:1.0;"/><polygon fill="none" points="377.55,303.16,362.6901,314.9577,372.7407,321.514,377.55,303.16" style="stroke:#181818;stroke-width:1.0;"/></g><!--reverse link IFileRepository to IProfileRepository--><g id="link_IFileRepository_IProfileRepository"><path codeLine="39" d="M733.6307,282.5345 C789.7207,308.8045 853.86,338.86 905.14,362.88 " fill="none" id="IFileRepository-backto-IProfileRepository" style="stroke:#181818;stroke-width:1.0;"/><polygon fill="none" points="717.33,274.9,731.0859,287.9681,736.1756,277.1009,717.33,274.9" style="stroke:#181818;stroke-width:1.0;"/></g><!--reverse link IFileRepository to IFragmentRepository--><g id="link_IFileRepository_IFragmentRepository"><path codeLine="40" d="M574.0474,302.9372 C568.0674,306.2972 577.64,300.51 571.5,303 C412.27,367.66 358.24,330.39 189.5,363 C183.82,364.1 177.96,365.29 172.08,366.53 " fill="none" id="IFileRepository-backto-IFragmentRepository" style="stroke:#181818;stroke-width:1.0;"/><polygon fill="none" points="589.74,294.12,571.1084,297.7064,576.9865,308.1681,589.74,294.12" style="stroke:#181818;stroke-width:1.0;"/></g><!--reverse link IFileRepository to IPlaceholderTagRepository--><g id="link_IFileRepository_IPlaceholderTagRepository"><path codeLine="41" d="M695.7738,309.7863 C710.8738,332.9363 718.29,344.3 730.33,362.74 " fill="none" id="IFileRepository-backto-IPlaceholderTagRepository" style="stroke:#181818;stroke-width:1.0;"/><polygon fill="none" points="685.94,294.71,690.7484,313.0643,700.7993,306.5084,685.94,294.71" style="stroke:#181818;stroke-width:1.0;"/></g><!--reverse link IFileRepository to IReplacementSourceRepository--><g id="link_IFileRepository_IReplacementSourceRepository"><path codeLine="42" d="M574.3719,302.1766 C568.3619,305.8766 577.57,299.92 571.5,303 C521.19,328.51 461.29,348.81 412.97,362.95 " fill="none" id="IFileRepository-backto-IReplacementSourceRepository" style="stroke:#181818;stroke-width:1.0;"/><polygon fill="none" points="589.7,292.74,571.2264,297.0672,577.5174,307.286,589.7,292.74" style="stroke:#181818;stroke-width:1.0;"/></g><!--reverse link IFileStorage to FileStorage--><g id="link_IFileStorage_FileStorage"><path codeLine="44" d="M1185.5,143.12 C1185.5,175.36 1185.5,195.67 1185.5,219.67 " fill="none" id="IFileStorage-backto-FileStorage" style="stroke:#181818;stroke-width:1.0;stroke-dasharray:7.0,7.0;"/><polygon fill="none" points="1185.5,125.12,1179.5,143.12,1191.5,143.12,1185.5,125.12" style="stroke:#181818;stroke-width:1.0;"/></g><!--reverse link IFileRepository to FileRepository--><g id="link_IFileRepository_FileRepository"><path codeLine="45" d="M602.8138,308.8042 C584.4238,331.9542 574.62,344.3 559.97,362.74 " fill="none" id="IFileRepository-backto-FileRepository" style="stroke:#181818;stroke-width:1.0;stroke-dasharray:7.0,7.0;"/><polygon fill="none" points="614.01,294.71,598.1158,305.0721,607.5119,312.5362,614.01,294.71" style="stroke:#181818;stroke-width:1.0;"/></g><!--reverse link IRepository to FileRepository--><g id="link_IRepository_FileRepository"><path codeLine="46" d="M479.4731,316.5826 C498.1831,337.5226 506.23,346.54 520.74,362.77 " fill="none" id="IRepository-backto-FileRepository" style="stroke:#181818;stroke-width:1.0;stroke-dasharray:7.0,7.0;"/><polygon fill="none" points="467.48,303.16,474.9989,320.5803,483.9473,312.5848,467.48,303.16" style="stroke:#181818;stroke-width:1.0;"/></g><!--reverse link FileRepository to ProfileRepository--><g id="link_FileRepository_ProfileRepository"><path codeLine="48" d="M626.2309,411.3052 C742.0909,440.4152 771.52,442.4 887.5,471 C892.96,472.35 898.61,473.77 904.28,475.22 " fill="none" id="FileRepository-backto-ProfileRepository" style="stroke:#181818;stroke-width:1.0;"/><polygon fill="none" points="608.83,406.7,624.6958,417.1055,627.766,405.5049,608.83,406.7" style="stroke:#181818;stroke-width:1.0;"/></g><!--reverse link FileRepository to FragmentRepository--><g id="link_FileRepository_FragmentRepository"><path codeLine="49" d="M470.458,418.0027 C428.498,435.7227 387.33,453.11 345.29,470.86 " fill="none" id="FileRepository-backto-FragmentRepository" style="stroke:#181818;stroke-width:1.0;"/><polygon fill="none" points="487.04,411,468.1238,412.4754,472.7922,423.53,487.04,411" style="stroke:#181818;stroke-width:1.0;"/></g><!--reverse link FileRepository to PlaceholderTagRepository--><g id="link_FileRepository_PlaceholderTagRepository"><path codeLine="50" d="M607.2919,418.5892 C645.4019,436.3092 681.54,453.11 719.73,470.86 " fill="none" id="FileRepository-backto-PlaceholderTagRepository" style="stroke:#181818;stroke-width:1.0;"/><polygon fill="none" points="590.97,411,604.7622,424.0298,609.8216,413.1486,590.97,411" style="stroke:#181818;stroke-width:1.0;"/></g><!--reverse link FileRepository to ReplacementSourceRepository--><g id="link_FileRepository_ReplacementSourceRepository"><path codeLine="51" d="M533.4503,428.6585 C529.9603,446.3185 528.63,452.94 525.12,470.68 " fill="none" id="FileRepository-backto-ReplacementSourceRepository" style="stroke:#181818;stroke-width:1.0;"/><polygon fill="none" points="536.94,411,527.5641,427.4952,539.3365,429.8217,536.94,411" style="stroke:#181818;stroke-width:1.0;"/></g><!--reverse link IProfileRepository to ProfileRepository--><g id="link_IProfileRepository_ProfileRepository"><path codeLine="53" d="M962.1753,428.6883 C965.5053,446.3483 966.75,452.94 970.1,470.68 " fill="none" id="IProfileRepository-backto-ProfileRepository" style="stroke:#181818;stroke-width:1.0;stroke-dasharray:7.0,7.0;"/><polygon fill="none" points="958.84,411,956.2792,429.8001,968.0714,427.5765,958.84,411" style="stroke:#181818;stroke-width:1.0;"/></g><!--reverse link IFragmentRepository to FragmentRepository--><g id="link_IFragmentRepository_FragmentRepository"><path codeLine="54" d="M149.0315,419.3967 C182.6315,437.1167 212.96,453.11 246.62,470.86 " fill="none" id="IFragmentRepository-backto-FragmentRepository" style="stroke:#181818;stroke-width:1.0;stroke-dasharray:7.0,7.0;"/><polygon fill="none" points="133.11,411,146.2326,424.7039,151.8304,414.0895,133.11,411" style="stroke:#181818;stroke-width:1.0;"/></g><!--reverse link IPlaceholderTagRepository to PlaceholderTagRepository--><g id="link_IPlaceholderTagRepository_PlaceholderTagRepository"><path codeLine="55" d="M754.6863,428.5553 C758.6863,446.2153 760.2,452.94 764.22,470.68 " fill="none" id="IPlaceholderTagRepository-backto-PlaceholderTagRepository" style="stroke:#181818;stroke-width:1.0;stroke-dasharray:7.0,7.0;"/><polygon fill="none" points="750.71,411,748.8345,429.8807,760.5381,427.2299,750.71,411" style="stroke:#181818;stroke-width:1.0;"/></g><!--reverse link IReplacementSourceRepository to ReplacementSourceRepository--><g id="link_IReplacementSourceRepository_ReplacementSourceRepository"><path codeLine="56" d="M382.1008,419.5295 C415.0308,437.2495 444.5,453.11 477.5,470.86 " fill="none" id="IReplacementSourceRepository-backto-ReplacementSourceRepository" style="stroke:#181818;stroke-width:1.0;stroke-dasharray:7.0,7.0;"/><polygon fill="none" points="366.25,411,379.2576,424.8131,384.944,414.2459,366.25,411" style="stroke:#181818;stroke-width:1.0;"/></g><!--reverse link FileStorage to ProfileRepository--><g id="link_FileStorage_ProfileRepository"><path codeLine="58" d="M1214.9251,277.2834 C1243.9751,311.2834 1280.56,366.39 1247.5,411 C1223.2,443.78 1117.11,468.75 1044.57,482.38 " fill="none" id="FileStorage-backto-ProfileRepository" style="stroke:#181818;stroke-width:1.0;stroke-dasharray:7.0,7.0;"/><polygon fill="none" points="1207.13,268.16,1207.9864,275.3201,1214.9251,277.2834,1214.0687,270.1233,1207.13,268.16" style="stroke:#181818;stroke-width:1.0;"/></g><!--reverse link FileStorage to FragmentRepository--><g id="link_FileStorage_FragmentRepository"><path codeLine="59" d="M1162.3056,277.8951 C1132.6156,319.4651 1076.63,394.32 1044.5,411 C914.58,478.46 533,447.55 388.5,471 C382.81,471.92 376.95,472.99 371.08,474.15 " fill="none" id="FileStorage-backto-FragmentRepository" style="stroke:#181818;stroke-width:1.0;stroke-dasharray:7.0,7.0;"/><polygon fill="none" points="1169.28,268.13,1162.5378,270.6878,1162.3056,277.8951,1169.0478,275.3374,1169.28,268.13" style="stroke:#181818;stroke-width:1.0;"/></g><!--reverse link FileStorage to PlaceholderTagRepository--><g id="link_FileStorage_PlaceholderTagRepository"><path codeLine="60" d="M1194.9906,279.6965 C1203.6306,315.0265 1211,371.01 1176.5,411 C1173.95,413.95 989.25,450.77 869.56,474.36 " fill="none" id="FileStorage-backto-PlaceholderTagRepository" style="stroke:#181818;stroke-width:1.0;stroke-dasharray:7.0,7.0;"/><polygon fill="none" points="1192.14,268.04,1189.6798,274.8185,1194.9906,279.6965,1197.4508,272.918,1192.14,268.04" style="stroke:#181818;stroke-width:1.0;"/></g><!--reverse link FileStorage to ReplacementSourceRepository--><g id="link_FileStorage_ReplacementSourceRepository"><path codeLine="61" d="M1179.0802,279.9694 C1171.4302,316.8094 1153.44,376.3 1105.5,411 C1023.06,470.67 752.08,455.53 651.5,471 C646.02,471.84 640.42,472.73 634.77,473.64 " fill="none" id="FileStorage-backto-ReplacementSourceRepository" style="stroke:#181818;stroke-width:1.0;stroke-dasharray:7.0,7.0;"/><polygon fill="none" points="1181.52,268.22,1176.3836,273.2814,1179.0802,279.9694,1184.2165,274.9079,1181.52,268.22" style="stroke:#181818;stroke-width:1.0;"/></g><!--SRC=[hPF1QiCm38RlUGeVExRc0KOOZ8sLmc1boHx0ZTNEu4N5SGfbtRlFQTmqhcNliXvQa7xz-YIviZ6WDxm6jdoH2ag3cc-1VMVCVcxP0imxxB2LDduegeVP3RjdbKk-8XUdm1wbSB6Ix-4wzWmAp2JwasNIRtlfCNR-7tCFVlIkzC4EDfF25YqwAUuOTeR9fZMyiLLsmjvkZQXSmQDIfmxB9rGAQYEniNxdf11l-cCdkCMmN_nS7qAE3IEqAuqRRnlUdknXlg0nT7QbxCydAW6wubjQOwEzgZSfiTFrj576rwtHl3QiLhnjcN-LVjXBt3qI5mcXdJBaTGKnr26Tf9mSb1N7-PpQMQWXK0YZ65OeJIDUFUWe9gcZK6d3A2uf_nlv_DSlZddkdJaqT8BeZi9yHa65Ew5Kn4P8izW-A75w6m7NC19rme3DJKzSCGRep5ElByOwb2Q7cLuMStAAG1BPk6-JMhUdJE7z0W00]--></g></svg>